<svg version="1.2" xmlns="http://www.w3.org/2000/svg" viewBox="0 0 579 785" width="579" height="785">
	<title>hero-decor-1-svg</title>
	<style>
		.s0 { fill: #5d3bee } 
	</style>
	<g id="Layer" style="opacity: .1">
		<path id="Layer" class="s0" d="m285 219.4c-17.8-13.6-21.8-39.6-8.8-57.9l33.8-47.6c13-18.4 38-22.2 55.8-8.5 17.9 13.7 21.8 39.6 8.8 58l-33.7 47.6c-13 18.3-38 22.1-55.9 8.4z"/>
		<path id="Layer" class="s0" d="m52.8 554.3c-17.9-13.7-21.8-39.6-8.8-58l166.5-235c13-18.3 38.1-22.1 55.9-8.4 17.9 13.6 21.8 39.6 8.8 57.9l-166.5 235c-13 18.4-38.1 22.2-55.9 8.5z"/>
		<path id="Layer" class="s0" d="m3 860.8c-17.9-13.6-21.8-39.6-8.8-58l490.3-691.8c13-18.4 38-22.2 55.9-8.5 17.9 13.7 21.8 39.6 8.8 58l-490.3 691.8c-13.1 18.4-38.1 22.2-55.9 8.5z"/>
		<path id="Layer" class="s0" d="m354.7 587.4c-17.9-13.7-21.8-39.6-8.8-58l153.3-216.3c13-18.4 38-22.2 55.9-8.5 17.8 13.7 21.8 39.6 8.8 58l-153.3 216.3c-13 18.3-38.1 22.1-55.9 8.5z"/>
	</g>
</svg>